<svg width="32" height="32" fill="none" xmlns="http://www.w3.org/2000/svg"><path fill-rule="evenodd" clip-rule="evenodd" d="M6 6h25v25H6V6zm15.646 10.674a.933.933 0 10-1.319-1.32l-4.973 4.972a.934.934 0 001.32 1.32l4.972-4.972zM13.28 23.72a1.88 1.88 0 002.655 0l3.52-3.524a3.606 3.606 0 01-.954 3.405l-1.342 1.343a3.608 3.608 0 01-5.102-5.102l1.341-1.342a3.606 3.606 0 013.406-.955l-3.524 3.52a1.88 1.88 0 000 2.655zM18.5 13.4l1.342-1.343a3.608 3.608 0 015.101 5.103l-1.34 1.342a3.603 3.603 0 01-3.404.956l3.522-3.522a1.879 1.879 0 00-2.655-2.655l-3.522 3.522a3.6 3.6 0 01.957-3.403z" fill="#5A3F98"/><path d="M1 1v26.25h2.5V3.5h23.75V1H1z" fill="#5A3F98"/></svg>