<svg width="24" height="24" fill="none" xmlns="http://www.w3.org/2000/svg"><path d="M22.956 4.258c.054-.69.043-2.497.043-3.198 0 0-4.261-.015-4.943-.043-1.377-.056-2.774.045-4.144.043-.973-.002-1.932.027-2.915 0-.622-.018-9.983.085-9.983.085-.018.611.062 7.818.004 9.308-.064 1.641.068 7.859.042 9.275-.014.81.082 2.278-.019 3.135l.02.375c3.147 0 7.25.065 10.463.043-.013-1.266.048-3.412-.006-5.082-.012-.343-.023-3.956-.063-4.146l-2.215.014s-.047-1.333-.047-1.784v-1.328s1.77-.097 2.267-.14c0 0 .07-1.692.139-2.24.079-.626.096-1.258.463-1.812.671-1.013 1.338-1.907 2.572-2.176.467-.102 3.548-.71 3.663-.21l-.07 3.007c-.837 0-1.84-.085-2.694.552-.475.355-.606.65-.654 1.234-.029.34-.035 1.714-.035 1.714.45.065 1.118.037 1.603 0 .548-.04 1.954.105 1.954.105 0 .91-.036 3.01-.033 3.1-.56-.009-1.071.008-1.722-.02-.106-.006-1.8.02-1.796.05.123.757-.054 1.56-.043 2.325.006.445.137 5.32.077 6.806.75-.006 1.5-.012 2.265-.012h5.817s-.15-17.169-.01-18.98z" fill="#333235"/></svg>