<svg width="30" height="30" fill="none" xmlns="http://www.w3.org/2000/svg"><path d="M29.94 4.386c.074-.93.059-3.361.059-4.306 0 0-5.811-.02-6.741-.057-1.878-.076-3.783.06-5.651.057-1.327-.002-2.633.037-3.975 0C12.784.056.019.196.019.196c-.024.822.085 10.524.005 12.53-.087 2.208.093 10.578.058 12.484-.02 1.09.112 3.068-.026 4.22l.026.506c4.292 0 9.889.088 14.27.058-.02-1.705.065-4.593-.01-6.841-.015-.462-.03-5.326-.085-5.582l-3.021.02s-.064-1.795-.064-2.402V13.4s2.414-.13 3.092-.188c0 0 .095-2.277.189-3.014.108-.843.131-1.694.631-2.44.915-1.364 1.825-2.567 3.508-2.93.637-.137 4.838-.955 4.994-.283l-.094 4.05c-1.142 0-2.509-.116-3.674.742-.649.478-.827.876-.893 1.661-.038.457-.047 2.308-.047 2.308.615.087 1.525.049 2.186 0 .748-.055 2.665.141 2.665.141 0 1.224-.05 4.053-.045 4.173-.764-.012-1.462.01-2.349-.028-.144-.007-2.455.027-2.448.069.167 1.018-.074 2.1-.06 3.128.009.6.187 7.162.105 9.163 1.022-.009 2.047-.016 3.09-.016h7.932s-.204-23.112-.013-25.55z" fill="#5A3F98"/></svg>