<svg width="24" height="24" fill="none" xmlns="http://www.w3.org/2000/svg"><path d="M14.445 12a2.445 2.445 0 11-4.89 0 2.445 2.445 0 014.89 0zm3.525-2.963c.035.773.042 1.005.042 2.963 0 1.958-.007 2.19-.042 2.964-.091 1.97-1.016 2.915-3.005 3.005-.774.035-1.006.043-2.965.043-1.958 0-2.19-.007-2.963-.042-1.993-.09-2.916-1.037-3.005-3.005-.036-.775-.044-1.007-.044-2.965s.008-2.19.043-2.963c.09-1.972 1.016-2.916 3.005-3.005.774-.036 1.006-.043 2.964-.043s2.19.007 2.964.042c1.987.09 2.915 1.034 3.006 3.006zM15.766 12a3.766 3.766 0 10-7.532 0 3.766 3.766 0 007.532 0zm1.028-3.914a.88.88 0 10-1.76 0 .88.88 0 001.76 0zM23 1v22H1V1h22zm-3.667 11c0-1.991-.008-2.241-.044-3.023-.12-2.66-1.6-4.144-4.265-4.265-.783-.037-1.032-.045-3.024-.045s-2.24.008-3.023.044c-2.664.122-4.144 1.6-4.266 4.265-.036.783-.044 1.033-.044 3.024 0 1.992.008 2.241.044 3.023.122 2.664 1.6 4.144 4.266 4.266.783.036 1.031.044 3.023.044 1.992 0 2.241-.008 3.024-.044 2.66-.122 4.145-1.6 4.265-4.266.036-.782.044-1.031.044-3.023z" fill="#333235"/></svg>