<svg width="30" height="30" fill="none" xmlns="http://www.w3.org/2000/svg"><path d="M0 0v30h30V0H0zm23.578 11.546c.26 5.771-4.044 12.207-11.663 12.207-2.317 0-4.474-.68-6.29-1.844A8.256 8.256 0 0011.7 20.21a4.107 4.107 0 01-3.832-2.85 4.127 4.127 0 001.852-.07c-1.974-.396-3.335-2.174-3.291-4.075a4.083 4.083 0 001.857.514 4.11 4.11 0 01-1.27-5.479 11.65 11.65 0 008.458 4.287C14.875 9.971 16.823 7.5 19.47 7.5c1.18 0 2.247.497 2.995 1.296a8.21 8.21 0 002.607-.995 4.114 4.114 0 01-1.804 2.27c.83-.1 1.621-.32 2.356-.646a8.385 8.385 0 01-2.047 2.121z" fill="#5A3F98"/></svg>