<svg width="24" height="24" fill="none" xmlns="http://www.w3.org/2000/svg"><path d="M22.941 10.207c-.003-1.389.098-2.803.042-4.199-.027-.69-.042-5.007-.042-5.007-.693 0-2.476-.011-3.157.043-1.788.142-18.736-.01-18.736-.01v5.893c0 1.907-.029 3.738-.043 5.63-.024 3.276.043 7.457.043 10.667l.37.02c.845-.102 2.295-.005 3.095-.02 1.398-.026 7.535.109 9.155.044 1.47-.06 8.586.021 9.189.004 0 0 .102-9.483.084-10.113-.027-.996.002-1.967 0-2.952zm-3.994 6.332c-.525.336-2.659.436-3.176.052-.283-.21-.542-.474-.788-.725-.172-.175-.368-.26-.515-.45-.121-.157-.204-.34-.331-.494-.215-.258-.545-.477-.807-.162-.393.474.063 1.406-.462 1.76a.84.84 0 01-.574.136l-.487.023c-.286.006-.74.008-1.065-.052-.363-.067-.663-.27-.99-.419-.624-.283-1.218-.668-1.67-1.202-1.229-1.453-2.88-3.452-3.522-5.28-.132-.375-.48-1.118-.15-1.44.449-.334 2.655-.429 2.999.088.14.21.228.517.326.755.123.297.19.576.383.839.17.233.296.467.428.722.147.287.287.562.467.826.122.18.445.536.649.562.498.066.467-1.172.43-1.474a5.98 5.98 0 01-.035-.896c.008-.252.03-.607-.116-.813-.238-.335-.767-.084-.809-.535.088-.128.07-.241.654-.438a2.37 2.37 0 011.06-.125c.619.05 1.275-.12 1.871.084.57.197.482 1.026.463 1.523-.025.678.002 1.34 0 2.029 0 .313-.013.618.361.593.35-.024.386-.325.553-.575.233-.346.446-.698.683-1.043.32-.468.416-.992.716-1.47.107-.172.2-.546.365-.681.125-.103.364-.059.515-.059h.36c.276.003.558.007.841.018.409.014.866-.077 1.271-.018 1.748.252-2.196 4.076-1.99 4.758.141.471 1.04.999 1.365 1.385.433.513 1.76 1.537.727 2.198z" fill="#333235"/></svg>