<svg width="30" height="30" fill="none" xmlns="http://www.w3.org/2000/svg"><path d="M29.92 12.393c-.004-1.868.133-3.773.057-5.65C29.94 5.812 29.92 0 29.92 0c-.945 0-3.377-.015-4.306.058C23.176.251.064.047.064.047v7.932c0 2.566-.038 5.032-.057 7.58-.032 4.409.058 10.037.058 14.359l.505.026c1.153-.138 3.13-.006 4.22-.026 1.906-.035 10.276.146 12.485.058 2.005-.08 11.707.03 12.53.005 0 0 .139-12.765.115-13.613-.037-1.341.002-2.648 0-3.974zm-5.447 8.524c-.716.453-3.625.588-4.33.07-.387-.283-.74-.637-1.075-.975-.235-.236-.502-.35-.703-.607-.165-.21-.277-.457-.451-.663-.293-.348-.743-.643-1.1-.219-.536.638.085 1.892-.63 2.369-.24.16-.483.206-.783.183l-.664.031c-.39.008-1.008.011-1.452-.07-.495-.09-.904-.363-1.351-.564-.85-.38-1.66-.899-2.276-1.617-1.676-1.957-3.929-4.648-4.804-7.108-.18-.505-.655-1.505-.204-1.94.612-.449 3.62-.576 4.09.12.19.282.31.696.445 1.016.167.4.258.775.52 1.13.233.313.405.628.585.972.201.385.392.755.637 1.11.166.242.606.722.884.758.68.088.637-1.578.587-1.985a7.942 7.942 0 01-.048-1.206c.01-.338.041-.816-.158-1.093-.324-.452-1.046-.114-1.103-.72.12-.173.094-.326.891-.591a3.27 3.27 0 011.447-.168c.843.068 1.738-.163 2.551.113.778.265.657 1.38.632 2.05-.035.913.002 1.804 0 2.731-.001.422-.018.833.491.798.478-.032.527-.437.755-.773.317-.467.608-.94.93-1.405.436-.629.567-1.335.977-1.98.146-.23.272-.734.498-.915.17-.138.496-.08.702-.08h.492c.376.005.76.01 1.146.024.557.02 1.181-.102 1.733-.024 2.383.34-2.995 5.487-2.715 6.405.194.635 1.42 1.345 1.863 1.865.59.691 2.399 2.069.991 2.959z" fill="#5A3F98"/></svg>